# xmcd CD database file
#
# Track frame offsets:
#	150
#	15040
#	31173
#	42176
#	54339
#	63532
#	81312
#	92639
#	102778
#	111540
#	132208
#	154604
#	165417
#	176771
#	193254
#	205660
#	230675
#	244566
#	255893
#	268272
#	276656
#
# Disc length: 3869 seconds
#
# Revision: 0
# Processed by: cddbd v1.5.2PL0 Copyright (c) Steve Scherf et al.
# Submitted via: CDex 1.70beta2
#
DISCID=190f1b15
DTITLE=Mix Tropical - 2007
DYEAR=1900
DGENRE=Salsa
TTITLE0=Agrupación Marilyn - Nos Enamoramos
TTITLE1=La Banda del Lechuga - La Plazita
TTITLE2=El Original - Hermano Menor
TTITLE3=El Stylo - Tu Partida
TTITLE4=Jambao - Se Parece a Tí
TTITLE5=Re Loko - Igual que Ayer
TTITLE6=La Peluca de Mirta - La H D P
TTITLE7=Play - Te Quiero
TTITLE8=El Original - Noche de Sexo
TTITLE9=Cumbieton - Con ella me Kedare
TTITLE10=El Original - Me Pones Mal
TTITLE11=Baila Baila - Inolvidable
TTITLE12=El Stylo - Lo Robe para Tí
TTITLE13=Nestor en Bloque - Dejenla que Llore
TTITLE14=Nestor en Bloque - Quieres ser mi Amante
TTITLE15=Dia y Noche - La Loura Automatica
TTITLE16=El Empuje - Hasta las Manos
TTITLE17=El Empuje - El Osito Bailador
TTITLE18=La Peluca de Mirta - El Baile del Pato
TTITLE19=Los Gedes - El Chupachichi
TTITLE20=Damas Gratis - Micaela
EXTD=
EXTT0=
EXTT1=
EXTT2=
EXTT3=
EXTT4=
EXTT5=
EXTT6=
EXTT7=
EXTT8=
EXTT9=
EXTT10=
EXTT11=
EXTT12=
EXTT13=
EXTT14=
EXTT15=
EXTT16=
EXTT17=
EXTT18=
EXTT19=
EXTT20=
PLAYORDER=
